<?xml version="1.0" encoding="UTF-8" standalone="no"?>
<!-- Created with Inkscape (http://www.inkscape.org/) -->

<svg
   xmlns:dc="http://purl.org/dc/elements/1.1/"
   xmlns:cc="http://creativecommons.org/ns#"
   xmlns:rdf="http://www.w3.org/1999/02/22-rdf-syntax-ns#"
   xmlns:svg="http://www.w3.org/2000/svg"
   xmlns="http://www.w3.org/2000/svg"
   xmlns:sodipodi="http://sodipodi.sourceforge.net/DTD/sodipodi-0.dtd"
   xmlns:inkscape="http://www.inkscape.org/namespaces/inkscape"
   width="300"
   height="300"
   id="svg2"
   version="1.1"
   inkscape:version="0.48.2 r9819"
   sodipodi:docname="布-bigseal.svg">
  <defs
     id="defs4" />
  <sodipodi:namedview
     id="base"
     pagecolor="#ffffff"
     bordercolor="#666666"
     borderopacity="1.0"
     inkscape:pageopacity="0.0"
     inkscape:pageshadow="2"
     inkscape:zoom="1.4"
     inkscape:cx="174.76952"
     inkscape:cy="140.13236"
     inkscape:document-units="px"
     inkscape:current-layer="layer1"
     showgrid="false"
     inkscape:window-width="1280"
     inkscape:window-height="999"
     inkscape:window-x="0"
     inkscape:window-y="24"
     inkscape:window-maximized="1" />
  <metadata
     id="metadata7">
    <rdf:RDF>
      <cc:Work
         rdf:about="">
        <dc:format>image/svg+xml</dc:format>
        <dc:type
           rdf:resource="http://purl.org/dc/dcmitype/StillImage" />
        <dc:title></dc:title>
      </cc:Work>
    </rdf:RDF>
  </metadata>
  <g
     inkscape:label="Calque 1"
     inkscape:groupmode="layer"
     id="layer1"
     transform="translate(0,-752.36218)">
    <path
       style="fill:#000000"
       d="m 145.02572,1028.6397 c -3.76401,-1.9523 -14.6711,0.661 -13.19905,-8.8599 0.99201,-12.4308 -9.08723,-20.17724 -9.89861,-31.67026 0.30429,-14.71332 -19.60903,-17.08434 -27.511409,-7.63981 -10.059652,12.64821 -7.290974,31.07317 -17.275391,43.67407 -9.725951,8.4132 -6.995527,-13.343 -7.810915,-19.4603 -0.98935,-13.50647 -2.411903,-27.70945 4.303723,-40.16874 2.979437,-10.5994 16.095273,-3.87573 24.094686,-5.75337 24.290696,0.0532 48.800756,0.11561 72.727256,-4.6382 11.22411,0.24793 25.80522,-1.16829 32.57468,9.84736 4.81959,28.25469 4.32761,61.54845 -2.4975,55.74925 -12.46507,-6.3675 -8.05015,-23.09225 -15.89918,-32.80076 -3.93826,-11.62175 -21.9115,-19.83871 -31.12383,-9.41767 -0.42933,13.05181 -10.40072,27.72333 1.74005,38.63243 5.06708,7.0102 -7.32412,21.6216 -10.22451,12.5059 z m 96.13235,-46.89875 c -7.40568,-11.20457 -18.66804,-19.5761 -24.33399,-31.94868 -7.60032,-7.10982 -8.16394,-18.87531 -4.14977,-27.92661 8.41642,-10.59146 6.99153,-24.74419 0.85549,-36.07845 -4.59506,-9.36661 -14.68317,-11.11878 -19.2048,-20.37278 -4.17187,4.4753 2.96142,16.02295 -5.53053,21.136 -9.44889,7.98479 -20.83047,13.74018 -32.33877,18.27417 -13.2781,5.04779 -27.7153,5.15688 -41.69679,5.27813 -13.99121,-3.10973 6.55434,-6.71131 11.95478,-6.85674 12.56866,-2.169 25.28914,-6.45267 34.16383,-16.13566 6.88548,-4.51132 26.01783,-20.18808 9.82633,-24.10939 -20.70728,-1.78444 -41.6171,-3.12914 -62.35764,-1.44329 -11.546565,0.54462 -21.91848,17.51186 -32.72965,7.96961 -13.048806,-13.8905 -14.761063,-34.18842 -16.411588,-52.3039 1.308847,-9.51774 -4.577246,-26.90921 6.348417,-30.5854 11.230746,5.57911 13.242738,19.31895 16.724522,30.13336 5.042658,14.37406 17.084471,28.3705 33.405119,28.56859 23.6301,2.58024 47.38489,3.79151 71.05819,5.93632 0.73328,-13.94047 0.70679,-30.83849 -13.12619,-38.79524 -7.00421,-7.46635 -24.56598,-9.79309 -25.42864,-19.94832 10.25666,-2.51044 21.30356,2.42159 31.3871,4.83042 14.88951,4.71933 29.49436,15.02274 33.21488,31.02299 3.66403,10.63029 -9.18677,21.5905 -0.52133,31.49306 9.95647,8.2197 18.12162,17.75159 24.83473,28.83276 5.9804,10.56868 9.21056,21.95314 12.52442,33.62247 1.45601,23.37286 -0.38505,46.82592 -0.73977,70.22178 -2.57612,-3.60507 -5.15223,-7.21013 -7.72835,-10.8152 z"
       id="path3060"
       inkscape:connector-curvature="0"
       sodipodi:nodetypes="cccccccccccccccccccccccccccccccccccccccccc" />
  </g>
</svg>
