<?xml version="1.0" encoding="UTF-8" standalone="no"?>
<!-- Created with Inkscape (http://www.inkscape.org/) -->

<svg
   xmlns:dc="http://purl.org/dc/elements/1.1/"
   xmlns:cc="http://creativecommons.org/ns#"
   xmlns:rdf="http://www.w3.org/1999/02/22-rdf-syntax-ns#"
   xmlns:svg="http://www.w3.org/2000/svg"
   xmlns="http://www.w3.org/2000/svg"
   xmlns:sodipodi="http://sodipodi.sourceforge.net/DTD/sodipodi-0.dtd"
   xmlns:inkscape="http://www.inkscape.org/namespaces/inkscape"
   width="300"
   height="300"
   viewBox="0 0 300 300"
   id="svg2"
   version="1.1"
   inkscape:version="0.91 r13725"
   sodipodi:docname="才-bronze.svg">
  <defs
     id="defs4" />
  <sodipodi:namedview
     id="base"
     pagecolor="#ffffff"
     bordercolor="#666666"
     borderopacity="1.0"
     inkscape:pageopacity="0.0"
     inkscape:pageshadow="2"
     inkscape:zoom="1.2432572"
     inkscape:cx="133.16179"
     inkscape:cy="151.18248"
     inkscape:document-units="px"
     inkscape:current-layer="layer1"
     showgrid="false"
     units="px"
     inkscape:window-width="985"
     inkscape:window-height="605"
     inkscape:window-x="81"
     inkscape:window-y="23"
     inkscape:window-maximized="0" />
  <metadata
     id="metadata7">
    <rdf:RDF>
      <cc:Work
         rdf:about="">
        <dc:format>image/svg+xml</dc:format>
        <dc:type
           rdf:resource="http://purl.org/dc/dcmitype/StillImage" />
        <dc:title></dc:title>
      </cc:Work>
    </rdf:RDF>
  </metadata>
  <g
     inkscape:label="Layer 1"
     inkscape:groupmode="layer"
     id="layer1"
     transform="translate(0,-752.36216)">
    <path
       style="fill:#000000"
       d="m 163.30322,1033.8057 c -3.5084,-5.457 -8.12756,-41.49922 -8.23991,-64.29394 -0.087,-17.6585 -0.95524,-22.29334 -5.06331,-27.02998 -2.72704,-3.1443 -4.98307,-7.49853 -5.01339,-9.67606 -0.0303,-2.17753 -2.23673,-6.74817 -4.90313,-10.15697 -2.66641,-3.40881 -4.87282,-7.45781 -4.90314,-8.9978 -0.0303,-1.53999 -4.61973,-7.50349 -10.19869,-13.25223 l -10.14357,-10.45225 -22.704899,0.64723 c -26.42196,0.75318 -36.34013,-1.3185 -36.34013,-7.59064 0,-6.73613 7.68032,-8.14234 53.086549,-9.71978 l 41.93046,-1.45669 -0.56944,-47.10346 c -0.57716,-47.7427 0.27299,-55.78042 5.8999,-55.78042 5.28827,0 8.73738,26.44074 8.51496,65.2754 -0.11583,20.22098 0.36358,37.33957 1.06533,38.04132 1.46431,1.46432 7.04569,2.14807 36.34092,4.45198 21.60605,1.6992 42.14522,6.07947 42.14522,8.98807 0,5.08759 -8.65773,7.12498 -28.90702,6.80257 -20.03267,-0.31896 -22.91608,0.22245 -28.90156,5.42675 -3.65685,3.17958 -6.64881,7.81109 -6.64881,10.29224 0,2.48116 -0.98026,4.51119 -2.17836,4.51119 -1.1981,0 -3.70822,3.62573 -5.57804,8.05717 -3.45963,8.19925 -3.78298,21.91948 -1.8957,80.4389 0.66085,20.4911 0.0665,31.1481 -1.84395,33.0645 -2.11071,2.1173 -3.35464,1.9949 -4.95029,-0.4871 z"
       id="path3845"
       inkscape:connector-curvature="0" />
  </g>
</svg>
