<?xml version="1.0" encoding="UTF-8" standalone="no"?>
<svg
   xmlns:dc="http://purl.org/dc/elements/1.1/"
   xmlns:cc="http://creativecommons.org/ns#"
   xmlns:rdf="http://www.w3.org/1999/02/22-rdf-syntax-ns#"
   xmlns:svg="http://www.w3.org/2000/svg"
   xmlns="http://www.w3.org/2000/svg"
   viewBox="0 0 300 300"
   height="300"
   width="300"
   id="svg32"
   version="1.1">
  <metadata
     id="metadata38">
    <rdf:RDF>
      <cc:Work
         rdf:about="">
        <dc:format>image/svg+xml</dc:format>
        <dc:type
           rdf:resource="http://purl.org/dc/dcmitype/StillImage" />
        <dc:title></dc:title>
      </cc:Work>
    </rdf:RDF>
  </metadata>
  <defs
     id="defs36" />
  <path
     id="path42"
     d="m 106.78842,284.71502 c -3.6783,-0.31907 -3.13741,0.18372 -6.61179,-2.67035 -4.842049,-3.97755 4.02495,-5.99151 7.55592,-6.36389 7.8706,-0.49873 18.11564,-0.85268 27.63499,-1.12162 l 0.10095,-26.1656 c -6.6856,-8.16424 -15.90364,-19.23061 -22.91358,-28.22502 -4.97978,-6.40709 -10.08061,-15.53419 -10.62304,-21.90412 3.91681,-0.99374 7.03785,2.04916 8.65133,3.85753 l 25.23573,28.59152 c -0.0619,-19.89887 0.52131,-49.77685 4.35256,-68.34277 -7.36506,-10.97618 -15.2039,-20.47846 -18.91228,-36.75062 -5.27233,-23.13476 3.45434,-40.762775 14.82097,-57.804475 -6.99846,-11.200902 -12.16221,-18.685017 -20.20844,-31.518258 -2.25437,-3.595595 -4.63067,-7.416483 -5.59278,-11.4548 -0.76594,-3.870732 3.82639,-2.543107 5.28441,-1.075987 10.88057,10.94851 21.15521,24.553135 28.17146,33.543024 4.58583,-6.514517 38.47145,-47.7648426 41.03013,-41.703597 1.08981,2.581632 -5.87102,11.119967 -9.76525,16.009696 -9.75732,12.251606 -18.64717,25.583317 -24.86539,34.459683 9.23444,12.893237 15.45267,23.155639 19.03421,36.550284 2.38659,9.21018 -1.49636,22.6437 -3.87068,27.80393 -4.77249,10.37231 -9.62431,21.33646 -11.88645,28.5603 -5.2939,16.90541 -5.34276,40.55425 -5.89136,55.0308 -0.43353,11.44009 -0.66885,18.73033 -0.89142,28.90132 l 46.03439,-44.90409 c 2.72266,11.71367 -13.75197,26.67154 -18.42808,31.59483 l -28.24439,29.63254 -0.40593,15.19605 25.95457,0.33071 c 17.91652,0.80955 18.07583,1.69034 23.155,3.41885 2.344,0.7977 8.42721,3.85988 5.96791,4.42267 -25.98223,3.1224 -65.72886,2.38915 -93.87367,2.10146 z m 51.51044,-176.18605 c -0.26139,-7.43562 -7.56727,-21.249885 -15.48537,-31.681599 -7.29104,10.344814 -13.45155,21.409264 -13.4581,33.417969 -0.007,13.15486 9.84547,30.15597 14.70263,36.62356 5.45642,-12.32811 14.57809,-28.7663 14.24084,-38.35993 z"
     style="fill:#000000;stroke-width:0.69659245" />
</svg>
